<svg id="visual" viewBox="0 0 960 100" width="960" height="100" xmlns="http://www.w3.org/2000/svg" xmlns:xlink="http://www.w3.org/1999/xlink" version="1.1"><path d="M0 62L12.3 60.8C24.7 59.7 49.3 57.3 74 55.7C98.7 54 123.3 53 148 53.7C172.7 54.3 197.3 56.7 221.8 56.7C246.3 56.7 270.7 54.3 295.2 53.3C319.7 52.3 344.3 52.7 369 52.7C393.7 52.7 418.3 52.3 443 53C467.7 53.7 492.3 55.3 517 54.8C541.7 54.3 566.3 51.7 591 53.5C615.7 55.3 640.3 61.7 664.8 60.3C689.3 59 713.7 50 738.2 48C762.7 46 787.3 51 812 51.5C836.7 52 861.3 48 886 47C910.7 46 935.3 48 947.7 49L960 50L960 101L947.7 101C935.3 101 910.7 101 886 101C861.3 101 836.7 101 812 101C787.3 101 762.7 101 738.2 101C713.7 101 689.3 101 664.8 101C640.3 101 615.7 101 591 101C566.3 101 541.7 101 517 101C492.3 101 467.7 101 443 101C418.3 101 393.7 101 369 101C344.3 101 319.7 101 295.2 101C270.7 101 246.3 101 221.8 101C197.3 101 172.7 101 148 101C123.3 101 98.7 101 74 101C49.3 101 24.7 101 12.3 101L0 101Z" fill="#d65a31"></path><path d="M0 65L12.3 66.5C24.7 68 49.3 71 74 69.5C98.7 68 123.3 62 148 61.8C172.7 61.7 197.3 67.3 221.8 66.7C246.3 66 270.7 59 295.2 59.5C319.7 60 344.3 68 369 68.3C393.7 68.7 418.3 61.3 443 60C467.7 58.7 492.3 63.3 517 65.2C541.7 67 566.3 66 591 67C615.7 68 640.3 71 664.8 73.2C689.3 75.3 713.7 76.7 738.2 76C762.7 75.3 787.3 72.7 812 69.8C836.7 67 861.3 64 886 63.8C910.7 63.7 935.3 66.3 947.7 67.7L960 69L960 101L947.7 101C935.3 101 910.7 101 886 101C861.3 101 836.7 101 812 101C787.3 101 762.7 101 738.2 101C713.7 101 689.3 101 664.8 101C640.3 101 615.7 101 591 101C566.3 101 541.7 101 517 101C492.3 101 467.7 101 443 101C418.3 101 393.7 101 369 101C344.3 101 319.7 101 295.2 101C270.7 101 246.3 101 221.8 101C197.3 101 172.7 101 148 101C123.3 101 98.7 101 74 101C49.3 101 24.7 101 12.3 101L0 101Z" fill="#a43c63"></path><path d="M0 79L12.3 80C24.7 81 49.3 83 74 82.8C98.7 82.7 123.3 80.3 148 79.3C172.7 78.3 197.3 78.7 221.8 76.8C246.3 75 270.7 71 295.2 69.8C319.7 68.7 344.3 70.3 369 71.7C393.7 73 418.3 74 443 75.5C467.7 77 492.3 79 517 80.7C541.7 82.3 566.3 83.7 591 83.2C615.7 82.7 640.3 80.3 664.8 80C689.3 79.7 713.7 81.3 738.2 79.5C762.7 77.7 787.3 72.3 812 69.3C836.7 66.3 861.3 65.7 886 65.5C910.7 65.3 935.3 65.7 947.7 65.8L960 66L960 101L947.7 101C935.3 101 910.7 101 886 101C861.3 101 836.7 101 812 101C787.3 101 762.7 101 738.2 101C713.7 101 689.3 101 664.8 101C640.3 101 615.7 101 591 101C566.3 101 541.7 101 517 101C492.3 101 467.7 101 443 101C418.3 101 393.7 101 369 101C344.3 101 319.7 101 295.2 101C270.7 101 246.3 101 221.8 101C197.3 101 172.7 101 148 101C123.3 101 98.7 101 74 101C49.3 101 24.7 101 12.3 101L0 101Z" fill="#523a61"></path><path d="M0 82L12.3 83.7C24.7 85.3 49.3 88.7 74 90.2C98.7 91.7 123.3 91.3 148 91C172.7 90.7 197.3 90.3 221.8 89.2C246.3 88 270.7 86 295.2 85.3C319.7 84.7 344.3 85.3 369 85.8C393.7 86.3 418.3 86.7 443 85.7C467.7 84.7 492.3 82.3 517 81C541.7 79.7 566.3 79.3 591 79.7C615.7 80 640.3 81 664.8 83.3C689.3 85.7 713.7 89.3 738.2 89.3C762.7 89.3 787.3 85.7 812 83.5C836.7 81.3 861.3 80.7 886 82C910.7 83.3 935.3 86.7 947.7 88.3L960 90L960 101L947.7 101C935.3 101 910.7 101 886 101C861.3 101 836.7 101 812 101C787.3 101 762.7 101 738.2 101C713.7 101 689.3 101 664.8 101C640.3 101 615.7 101 591 101C566.3 101 541.7 101 517 101C492.3 101 467.7 101 443 101C418.3 101 393.7 101 369 101C344.3 101 319.7 101 295.2 101C270.7 101 246.3 101 221.8 101C197.3 101 172.7 101 148 101C123.3 101 98.7 101 74 101C49.3 101 24.7 101 12.3 101L0 101Z" fill="#222831"></path></svg>