<svg id="visual" viewBox="0 0 900 100" width="900" height="100" xmlns="http://www.w3.org/2000/svg" xmlns:xlink="http://www.w3.org/1999/xlink" version="1.1"><path d="M0 70L13.7 68.8C27.3 67.7 54.7 65.3 82 63.5C109.3 61.7 136.7 60.3 163.8 62.3C191 64.3 218 69.7 245.2 71.5C272.3 73.3 299.7 71.7 327 70.5C354.3 69.3 381.7 68.7 409 69.8C436.3 71 463.7 74 491 74.5C518.3 75 545.7 73 573 70C600.3 67 627.7 63 654.8 61.7C682 60.3 709 61.7 736.2 63.7C763.3 65.7 790.7 68.3 818 67.8C845.3 67.3 872.7 63.7 886.3 61.8L900 60L900 101L886.3 101C872.7 101 845.3 101 818 101C790.7 101 763.3 101 736.2 101C709 101 682 101 654.8 101C627.7 101 600.3 101 573 101C545.7 101 518.3 101 491 101C463.7 101 436.3 101 409 101C381.7 101 354.3 101 327 101C299.7 101 272.3 101 245.2 101C218 101 191 101 163.8 101C136.7 101 109.3 101 82 101C54.7 101 27.3 101 13.7 101L0 101Z" fill="#d65a31"></path><path d="M0 75L13.7 76.2C27.3 77.3 54.7 79.7 82 81.3C109.3 83 136.7 84 163.8 82.8C191 81.7 218 78.3 245.2 78.7C272.3 79 299.7 83 327 84.2C354.3 85.3 381.7 83.7 409 83.7C436.3 83.7 463.7 85.3 491 84.5C518.3 83.7 545.7 80.3 573 78.5C600.3 76.7 627.7 76.3 654.8 77.8C682 79.3 709 82.7 736.2 83.2C763.3 83.7 790.7 81.3 818 80.5C845.3 79.7 872.7 80.3 886.3 80.7L900 81L900 101L886.3 101C872.7 101 845.3 101 818 101C790.7 101 763.3 101 736.2 101C709 101 682 101 654.8 101C627.7 101 600.3 101 573 101C545.7 101 518.3 101 491 101C463.7 101 436.3 101 409 101C381.7 101 354.3 101 327 101C299.7 101 272.3 101 245.2 101C218 101 191 101 163.8 101C136.7 101 109.3 101 82 101C54.7 101 27.3 101 13.7 101L0 101Z" fill="#222831"></path></svg>